<?xml version="1.0" encoding="utf-8"?>
<!-- Generator: Adobe Illustrator 16.0.0, SVG Export Plug-In . SVG Version: 6.00 Build 0)  -->
<!DOCTYPE svg PUBLIC "-//W3C//DTD SVG 1.1//EN" "http://www.w3.org/Graphics/SVG/1.1/DTD/svg11.dtd">
<svg version="1.1" xmlns="http://www.w3.org/2000/svg" xmlns:xlink="http://www.w3.org/1999/xlink" x="0px" y="0px" width="60px"
	 height="60px" viewBox="0 0 60 60" enable-background="new 0 0 60 60" xml:space="preserve">
<g id="Layer_1">
</g>
<g id="txt">
	<linearGradient id="SVGID_2_" gradientUnits="userSpaceOnUse" x1="30" y1="58.4277" x2="30" y2="6.3544">
		<stop  offset="0" style="stop-color:#477256"/>
		<stop  offset="1" style="stop-color:#135D6B"/>
	</linearGradient>
	<rect fill="url(#SVGID_2_)" width="60" height="60"/>
	<g>
		<path fill="#FFFFFF" d="M47.678,49.463c0,1.09-0.877,1.974-1.959,1.974H14.283c-1.084,0-1.961-0.884-1.961-1.974v-27.47
			c0-1.09,0.877-1.974,1.961-1.974h31.436c1.082,0,1.959,0.884,1.959,1.974V49.463z"/>
		<g>
			<g>
				<path fill="none" stroke="#293F54" stroke-width="0.5669" stroke-miterlimit="10" d="M45.875,48.728c0,0.552-0.447,1-1,1H15.313
					c-0.553,0-1-0.448-1-1v-26c0-0.553,0.447-1,1-1h29.563c0.553,0,1,0.447,1,1V48.728z"/>
				
					<line fill="none" stroke="#293F54" stroke-width="0.5669" stroke-miterlimit="10" x1="14.125" y1="28.666" x2="45.813" y2="28.666"/>
				<circle fill="#00B1CC" cx="16.875" cy="25.291" r="0.813"/>
				<circle fill="#00B1CC" cx="20.875" cy="25.291" r="0.813"/>
				<circle fill="#00B1CC" cx="24.875" cy="25.291" r="0.813"/>
				<circle fill="#293F54" cx="30.25" cy="25.291" r="0.5"/>
				<circle fill="#293F54" cx="32.775" cy="25.291" r="0.5"/>
				<circle fill="#293F54" cx="35.301" cy="25.291" r="0.5"/>
				<circle fill="#293F54" cx="37.826" cy="25.291" r="0.5"/>
				<circle fill="#293F54" cx="40.35" cy="25.291" r="0.5"/>
				<circle fill="#293F54" cx="42.875" cy="25.291" r="0.5"/>
			</g>
			<circle fill="#00B1CC" cx="23.229" cy="32.878" r="1.015"/>
			<circle fill="#FFC500" cx="27.938" cy="34.484" r="1.015"/>
			<circle fill="#FFC500" cx="26.702" cy="31.609" r="1.015"/>
			<circle fill="#00B1CC" cx="31.493" cy="31.359" r="1.015"/>
			<circle fill="#FFC500" cx="31.765" cy="34.26" r="1.015"/>
			<circle fill="#FFC500" cx="28.954" cy="46.635" r="1.015"/>
			<circle fill="#00B1CC" cx="36.815" cy="31.864" r="1.015"/>
			<circle fill="#00B1CC" cx="35.606" cy="34.26" r="1.015"/>
			<circle fill="#FFC500" cx="30.749" cy="48.342" r="0.692"/>
			<circle fill="#FFC500" cx="31.493" cy="46.635" r="0.692"/>
			<circle fill="#FFC500" cx="26.38" cy="48.02" r="0.692"/>
			<circle fill="#FFC500" cx="28.954" cy="29.902" r="0.692"/>
			<circle fill="#FFC500" cx="24.874" cy="35.176" r="0.692"/>
			<circle fill="#00B1CC" cx="18.661" cy="31.609" r="0.692"/>
			<circle fill="#00B1CC" cx="29.276" cy="32.556" r="0.692"/>
			<circle fill="#00B1CC" cx="23.739" cy="30.344" r="0.692"/>
			<circle fill="#FFC500" cx="20.995" cy="31.287" r="0.692"/>
			<circle fill="#FFC500" cx="35.108" cy="29.902" r="0.692"/>
			<circle fill="#FFC500" cx="33.968" cy="31.979" r="0.692"/>
			<circle fill="#FFC500" cx="40.167" cy="31.037" r="0.692"/>
			<circle fill="#FFC500" cx="33.274" cy="48.02" r="0.692"/>
			
				<path fill="none" stroke="#00B1CC" stroke-width="0.4544" stroke-linecap="round" stroke-linejoin="round" stroke-miterlimit="10" d="
				M14.313,41.115"/>
			<polygon fill="#293F54" points="24.432,36.73 35.801,36.73 30.75,40.73 30.75,44.153 29.119,44.153 29.119,40.82 			"/>
		</g>
	</g>
	<path fill="#98C020" d="M29.01,7.008c0.309,0,0.576-0.108,0.801-0.324c0.199-0.192,0.303-0.392,0.313-0.6
		c0.008-0.141-0.047-0.281-0.164-0.417c-0.115-0.138-0.262-0.207-0.436-0.207c-0.301,0-0.574,0.1-0.82,0.3
		c-0.244,0.199-0.371,0.408-0.379,0.625C28.307,6.8,28.535,7.008,29.01,7.008z"/>
	<path fill="#FFFFFF" d="M37.514,11.228l-0.139-0.185c-0.096,0.108-0.215,0.225-0.361,0.348c-0.18,0.147-0.303,0.222-0.371,0.222
		c-0.094,0-0.154-0.02-0.178-0.06c-0.023-0.039-0.035-0.11-0.029-0.214c0-0.039,0.031-0.191,0.092-0.455
		c0.063-0.263,0.096-0.464,0.102-0.602c0.004-0.202-0.033-0.358-0.111-0.466C36.414,9.684,36.24,9.627,36,9.646
		c-0.281,0.025-0.574,0.136-0.881,0.333c-0.127,0.084-0.25,0.182-0.369,0.295c0.213-0.889,0.32-1.497,0.326-1.824
		c0.004-0.484-0.195-0.733-0.6-0.749c-0.457-0.015-0.793,0.244-1.006,0.776c0.09-0.04,0.174-0.059,0.252-0.059
		c0.064,0,0.131,0.04,0.199,0.118c0.104,0.124,0.146,0.313,0.125,0.57c-0.014,0.188-0.059,0.59-0.133,1.207
		c-0.016,0.154-0.033,0.296-0.047,0.428c-0.029,0.021-0.057,0.042-0.088,0.062c-0.373,0.25-0.715,0.375-1.021,0.375
		c-0.408,0-0.609-0.154-0.6-0.461c0.016-0.534,0.107-1.233,0.273-2.099h0.887c0.068,0,0.102-0.029,0.102-0.087l0.109-0.537
		c0.018-0.083-0.018-0.125-0.109-0.125h-0.838c0.199-0.949,0.338-1.607,0.412-1.974c0.016-0.066-0.033-0.099-0.148-0.099
		c-0.219,0-0.502,0.091-0.85,0.274c-0.375,0.2-0.58,0.4-0.613,0.599L31.184,7.87H30.67c-0.066,0-0.104,0.029-0.111,0.087
		l-0.113,0.537c-0.016,0.083,0.021,0.125,0.113,0.125h0.514c-0.127,0.723-0.223,1.32-0.285,1.796
		c-0.125,0.125-0.266,0.254-0.428,0.39c-0.299,0.25-0.508,0.375-0.623,0.375c-0.268,0-0.396-0.179-0.389-0.537
		c0.125-0.782,0.242-1.427,0.35-1.935c0.033-0.3-0.016-0.543-0.145-0.731c-0.129-0.187-0.33-0.269-0.604-0.244
		c-0.176,0.017-0.441,0.184-0.801,0.5c-0.266,0.241-0.533,0.482-0.799,0.724l0.287,0.337c0.232-0.175,0.375-0.263,0.424-0.263
		c0.15,0,0.225,0.108,0.225,0.325c0,0.042-0.08,0.35-0.242,0.924c-0.041,0.146-0.078,0.282-0.109,0.409
		c-0.375,0.259-0.855,0.531-1.445,0.815c0.301-0.991,0.465-1.915,0.498-2.772c0.027-0.691-0.281-1.045-0.922-1.062
		c-0.775-0.024-1.283,0.408-1.523,1.299c0.135-0.058,0.273-0.087,0.418-0.087c0.117,0,0.215,0.047,0.291,0.143
		c0.076,0.096,0.109,0.207,0.102,0.331c-0.008,0.325-0.174,0.672-0.496,1.043c-0.324,0.371-0.611,0.556-0.863,0.556
		c-0.176,0-0.26-0.15-0.252-0.45c0.01-0.158,0.064-0.479,0.162-0.961c0.092-0.458,0.137-0.766,0.137-0.924
		c0-0.274-0.07-0.497-0.211-0.668c-0.141-0.17-0.346-0.244-0.611-0.219c-0.184,0.017-0.455,0.184-0.813,0.5
		c-0.266,0.241-0.531,0.482-0.799,0.724l0.287,0.337c0.232-0.175,0.375-0.263,0.424-0.263c0.158,0,0.234,0.108,0.225,0.325
		c0,0.017-0.074,0.279-0.225,0.787c-0.148,0.508-0.227,0.886-0.236,1.136c-0.016,0.342,0.047,0.604,0.189,0.787
		c0.174,0.225,0.467,0.32,0.875,0.287c0.486-0.033,0.971-0.212,1.455-0.537c0.201-0.133,0.393-0.287,0.576-0.462
		c-0.066,0.333-0.145,0.616-0.236,0.85c-0.9,0.408-1.549,0.757-1.947,1.049c-0.566,0.407-0.871,0.845-0.912,1.311
		c-0.076,0.808,0.332,1.212,1.223,1.212c0.6,0,1.18-0.366,1.736-1.1c0.475-0.624,0.887-1.457,1.236-2.497
		c0.605-0.3,1.117-0.594,1.535-0.882c-0.014,0.097-0.021,0.183-0.023,0.258c-0.01,0.266,0.057,0.482,0.193,0.649
		c0.137,0.167,0.334,0.25,0.594,0.25c0.557,0,1.115-0.242,1.674-0.724c0.162-0.143,0.309-0.292,0.443-0.449
		c-0.006,0.108-0.01,0.2-0.008,0.274c0.008,0.6,0.357,0.899,1.049,0.899c0.566,0,1.174-0.242,1.824-0.724
		c0.088-0.065,0.17-0.13,0.248-0.195c0,0.003,0,0.007,0,0.01c-0.01,0.237,0.045,0.425,0.162,0.563
		c0.148,0.167,0.389,0.247,0.725,0.237c-0.045-0.104-0.063-0.296-0.051-0.577c0.008-0.32,0.121-0.624,0.334-0.91
		c0.193-0.261,0.373-0.392,0.537-0.392c0.107,0,0.158,0.091,0.148,0.273c-0.006,0.118-0.035,0.29-0.086,0.514
		s-0.08,0.417-0.086,0.58c-0.004,0.158,0.035,0.286,0.115,0.384c0.082,0.099,0.197,0.148,0.352,0.148c0.33,0,0.66-0.143,0.99-0.428
		C37.188,11.726,37.377,11.489,37.514,11.228z M23.641,14.039c-0.133,0-0.195-0.059-0.186-0.175
		c0.016-0.217,0.389-0.504,1.121-0.862C24.195,13.693,23.883,14.039,23.641,14.039z"/>
</g>
</svg>
